<svg xmlns="http://www.w3.org/2000/svg" width="1200" height="360" viewBox="0 0 1200 360" role="img" aria-labelledby="title desc">
  <title id="title">React/Vite Slide Workspace animated portfolio visual</title>
  <desc id="desc">Animated SVG visual summarizing my-slide for GitHub portfolio review.</desc>
  <style>
    .bg { fill: #0f172a; }
    .panel { fill: #111827; stroke: #38bdf8; stroke-width: 2; }
    .panel2 { fill: #172554; stroke: #f59e0b; stroke-width: 2; }
    .title { font: 800 34px Segoe UI, Arial, sans-serif; fill: #f8fafc; }
    .subtitle { font: 600 22px Segoe UI, Arial, sans-serif; fill: #bae6fd; }
    .body { font: 500 18px Segoe UI, Arial, sans-serif; fill: #dbeafe; }
    .small { font: 700 16px Segoe UI, Arial, sans-serif; fill: #0f172a; }
    .chip { fill: #f8fafc; }
    .node { fill: #22d3ee; }
    .node2 { fill: #f59e0b; }
    .wire { stroke: #93c5fd; stroke-width: 5; stroke-linecap: round; }
    .pulse { animation: pulse 2.4s ease-in-out infinite; transform-origin: center; }
    @keyframes pulse { 0%, 100% { opacity: .55; transform: scale(.96); } 50% { opacity: 1; transform: scale(1.04); } }
  </style>
  <rect class="bg" width="1200" height="360" rx="28" />
  <circle cx="1040" cy="72" r="42" fill="#1e293b" />
  <circle class="pulse" cx="1040" cy="72" r="24" fill="#38bdf8" opacity=".85" />
  <rect x="50" y="48" width="760" height="118" rx="20" class="panel" />
  <text x="82" y="105" class="title">React/Vite Slide Workspace</text>
  <text x="84" y="143" class="subtitle">Presentation workspace</text>
  <rect x="850" y="48" width="300" height="118" rx="20" class="panel2" />
  <text x="878" y="92" class="subtitle">Portfolio Signal</text>
  <text x="878" y="127" class="body">English - visual - release</text>
  <path d="M120 236 C 250 180, 360 292, 500 236 S 750 180, 900 236 S 1060 292, 1120 236" class="wire" fill="none" />
  <g>
    <circle class="node pulse" cx="140" cy="236" r="28" />
    <circle class="node2 pulse" cx="380" cy="236" r="28" />
    <circle class="node pulse" cx="620" cy="236" r="28" />
    <circle class="node2 pulse" cx="860" cy="236" r="28" />
    <circle class="node pulse" cx="1080" cy="236" r="28" />
  </g>
  <g>
    <rect x="74" y="278" width="138" height="34" rx="17" class="chip" /><text x="143" y="301" text-anchor="middle" class="small">React</text>
    <rect x="300" y="278" width="160" height="34" rx="17" class="chip" /><text x="380" y="301" text-anchor="middle" class="small">Vite</text>
    <rect x="532" y="278" width="176" height="34" rx="17" class="chip" /><text x="620" y="301" text-anchor="middle" class="small">TypeScript</text>
    <rect x="774" y="278" width="172" height="34" rx="17" class="chip" /><text x="860" y="301" text-anchor="middle" class="small">open-slide</text>
    <rect x="1000" y="278" width="160" height="34" rx="17" class="chip" /><text x="1080" y="301" text-anchor="middle" class="small">static export</text>
  </g>
  <text x="66" y="200" class="body">Personal slide workspace scaffolded from the open-slide CLI.</text>
  <text x="66" y="330" class="body">Used for 1920x1080 technical decks and agent-assisted presentation experiments.</text>
</svg>
